<svg width="60" height="64" viewBox="0 0 60 64" fill="none" xmlns="http://www.w3.org/2000/svg">
<path d="M29.7863 48.7312C26.1806 44.2069 24.0606 40.2412 23.3578 36.8484C20.1364 24.277 39.4448 24.277 36.2234 36.8484C35.4449 40.3126 33.3249 44.2769 29.7949 48.7312H29.7863ZM49.5219 59.1925C43.5134 61.8082 37.5691 57.6383 32.4792 51.9826C47.3219 33.4013 39.0663 23.4113 29.7863 23.4113C21.9406 23.4113 17.6207 30.0556 19.3178 37.7684C20.3078 41.9384 22.9221 46.6812 27.0935 51.9826C22.4464 57.1326 18.4435 59.5097 14.9292 59.8283C7.78643 60.8897 2.19931 53.9626 4.74359 46.8155C6.90072 41.2212 20.7035 13.7899 21.2964 12.3071C23.5463 8.01139 24.9478 4.10712 29.7792 4.10712C34.3991 4.10712 35.9791 7.81282 38.4034 12.6599C43.5462 22.7485 51.1676 38.0141 54.809 46.8155C56.6905 51.5397 54.6133 56.9997 49.5219 59.1925ZM56.2362 39.7469C37.8248 0.561428 36.8048 0 29.7863 0C23.2835 0 20.5192 4.52426 17.6921 10.3985C2.52645 40.7284 1.05646 45.0269 0.929321 45.4012C-2.67352 55.3054 4.7493 63.9997 13.7335 63.9997C16.835 63.9997 22.3921 63.134 29.7863 55.0854C38.1691 64.1968 44.2519 63.9997 45.8391 63.9997C54.8233 64.0068 62.2461 55.3054 58.6404 45.4012C58.6433 44.8455 56.2376 39.8441 56.2376 39.7469H56.2362Z" fill="#FE18BE"/>
</svg>
