<svg width="62" height="64" viewBox="0 0 62 64" fill="none" xmlns="http://www.w3.org/2000/svg">
<path d="M35.7387 18.6714C28.7816 18.9286 11.5244 20.8857 11.5244 35.4571C11.5244 51.1 31.2816 51.7429 37.7387 41.6286C38.6673 43.0857 42.7959 46.9857 44.2102 48.3143L52.3244 40.3143C52.3244 40.3143 47.7102 36.7 47.7102 32.7714V11.7571C47.7102 8.14286 44.2102 0 31.6673 0C19.0959 0 12.4244 7.85714 12.4244 14.9L22.9244 15.8714C25.253 8.8 30.6673 8.8 30.6673 8.8C36.4816 8.78571 35.7387 13.0571 35.7387 18.6714ZM35.7387 31.0714C35.7387 42.5 23.7102 40.7857 23.7102 33.5286C23.7102 26.7857 30.9244 25.4286 35.7387 25.2714V31.0714ZM55.1673 54.4286C54.0673 55.8571 45.1673 64 30.2387 64C15.3102 64 3.88158 53.7857 0.381583 49.5714C-0.589846 48.4714 0.52444 47.9571 1.1673 48.3857C11.6387 54.7429 27.9959 65.2143 54.3816 52.7143C55.453 52.1857 56.2816 53 55.1673 54.4286ZM60.853 54.7429C59.9244 57 58.5673 58.5714 57.8244 59.1714C57.0387 59.8143 56.4673 59.5571 56.8959 58.6286C57.3244 57.7 59.653 51.9857 58.7101 50.7714C57.7816 49.5857 53.4244 50.1571 51.853 50.3143C50.3102 50.4571 49.9959 50.6 49.853 50.2714C49.5244 49.4571 52.953 48.0571 55.2101 47.7714C57.453 47.5143 61.0673 47.6571 61.7816 48.5857C62.3102 49.3143 61.7816 52.4571 60.853 54.7429Z" fill="#FE18BE"/>
</svg>
