<svg width="4000" height="2667" viewBox="0 0 4000 2667" fill="none" xmlns="http://www.w3.org/2000/svg">
<path d="M1826.53 722.667C1813.47 724.933 1794 735.333 1782.27 746.533C1773.47 754.8 1764 769.333 1759.6 780.8L1756.67 788.667L1756 932.8C1755.33 1084.13 1755.47 1078.93 1750 1082.93C1749.33 1083.47 1664.13 1084 1560.93 1084C1434.13 1084 1372.27 1084.4 1370.53 1085.33C1368 1086.8 1368 1090.27 1368 1275.73C1368 1482.27 1367.73 1472.67 1375.87 1492C1384.67 1512.67 1402.13 1532.67 1420.8 1543.73C1433.33 1551.2 1451.47 1557.07 1467.47 1558.67C1482 1560.27 1768.4 1560 1770 1558.4C1770.53 1558 1771.47 1553.73 1772.13 1549.07C1775.87 1523.2 1787.33 1469.87 1794.53 1444C1800.27 1424 1809.2 1397.73 1813.33 1388.67C1814 1387.2 1817.07 1380 1820.13 1372.67C1826.27 1357.73 1834.4 1341.07 1846 1319.33C1855.07 1302.4 1882.93 1259.2 1893.47 1246.13C1917.6 1215.87 1927.2 1204.93 1948 1184.13C2006.67 1125.33 2076.8 1079.33 2152.67 1049.87C2159.33 1047.2 2168.4 1043.73 2172.93 1041.87C2184 1037.47 2207.73 1030.8 2236.53 1023.87C2251.87 1020.27 2261.33 1017.33 2262.93 1015.73C2265.2 1013.47 2265.33 1006.93 2265.33 870.8C2265.33 728.667 2265.33 728.4 2262.53 724.8L2259.87 721.333L2046.27 721.467C1928.8 721.6 1829.87 722.133 1826.53 722.667Z" fill="url(#paint0_linear_459_47)"/>
<path d="M2343.33 1047.47C2341.87 1047.73 2331.33 1048.93 2320 1050C2288.4 1053.07 2261.07 1057.73 2236.4 1064C2233.6 1064.67 2228.67 1065.73 2225.33 1066.53C2210.67 1069.73 2173.07 1083.73 2150.4 1094.53C2144.13 1097.6 2138.53 1100 2138.13 1100C2137.73 1100 2134 1101.6 2129.73 1103.47C2108.67 1112.8 2093.6 1121.07 2086.4 1126.93C2084 1128.93 2079.33 1131.87 2076 1133.47C2072.67 1135.07 2068.27 1137.73 2066 1139.6C2063.87 1141.33 2057.47 1146.13 2052 1150.13C2030.13 1166.13 2003.07 1194.4 1978 1227.2C1952.8 1260.13 1939.73 1281.07 1928.67 1306.4C1919.2 1328 1901.07 1376.27 1900.27 1381.6C1899.6 1387.07 1902.53 1392 1906.4 1392C1907.6 1392 1930.27 1379.6 1956.93 1364.53C2007.73 1335.73 2012.8 1333.2 2054.67 1315.07C2081.73 1303.2 2098.13 1298.27 2189.2 1273.87C2311.2 1241.2 2357.73 1235.47 2536.67 1231.2C2594 1229.73 2654.53 1234.4 2698 1243.47C2713.73 1246.8 2717.47 1248.27 2715.47 1250.27C2714.93 1250.93 2700.27 1251.73 2682.93 1252.27C2665.6 1252.67 2640.27 1254.4 2626.67 1255.87C2602.53 1258.67 2589.87 1260 2565.07 1262.67C2558.27 1263.33 2548.13 1264.53 2542.67 1265.33C2537.2 1266 2527.87 1267.2 2522 1268C2510.67 1269.47 2504.27 1270.4 2450 1278.67C2419.87 1283.33 2360.27 1295.47 2314.8 1306.13C2289.73 1312 2163.73 1346.53 2150.67 1351.07C2143.73 1353.6 2130.27 1358.13 2120.67 1361.33C2084.27 1373.33 2022.67 1399.6 1990.4 1416.8C1927.47 1450.27 1902.13 1467.87 1863.47 1505.33C1835.6 1532.27 1813.6 1562.27 1790.93 1604C1776.53 1630.67 1757.73 1680.67 1753.2 1704.67C1752.67 1707.6 1750.93 1716.53 1749.2 1724.67C1746.13 1739.33 1746.13 1739.6 1745.73 1881.6C1745.2 2023.2 1745.33 2024 1748 2026.67C1750.67 2029.33 1751.33 2029.33 1969.07 2029.33C2212.27 2029.33 2193.33 2030.13 2213.6 2019.87C2240.53 2006.4 2259.87 1986.8 2272.67 1959.73C2283.07 1937.73 2282.67 1943.73 2282.67 1818.53C2282.67 1727.2 2282.93 1706.67 2284.4 1705.47C2285.73 1704.4 2335.47 1704 2460.8 1703.73C2628.13 1703.33 2635.47 1703.2 2640 1700.8C2646 1697.6 2651.6 1692.4 2654.4 1687.33C2656.53 1683.73 2656.67 1671.47 2657.07 1550.93C2657.2 1478.27 2656.93 1418.67 2656.27 1418.67C2655.73 1418.67 2643.73 1429.87 2629.6 1443.6L2604.13 1468.67L2603.47 1557.2C2602.93 1617.2 2602.27 1646.27 2601.33 1647.2C2600.27 1648.27 2544.8 1648.53 2416.27 1648.13C2236.8 1647.73 2232.67 1647.73 2230.4 1650.27C2228.27 1652.67 2228 1662 2227.73 1788.13L2227.33 1923.33L2222 1934C2211.73 1954.8 2190.27 1971.2 2166.67 1976.13C2154.53 1978.67 1805.6 1978.13 1803.07 1975.6C1800.4 1972.93 1800.53 1763.2 1803.2 1748.67C1821.2 1649.33 1861.07 1578.13 1923.2 1534.8C1950.27 1515.87 1948.4 1516.53 1958.67 1522.27C1969.2 1528.13 1995.6 1541.33 2014.93 1550.53C2028.53 1556.93 2037.33 1560 2079.33 1573.2C2110.93 1583.07 2141.73 1589.87 2164 1592C2172.4 1592.8 2182.67 1594 2186.67 1594.67C2200.67 1596.93 2238 1598.93 2251.33 1598.13C2330.27 1593.07 2375.2 1578.93 2431.33 1542C2439.47 1536.67 2448.67 1530.8 2452 1529.07C2457.6 1525.87 2481.2 1510.27 2497.33 1498.8C2504.27 1494 2533.6 1468.53 2551.47 1452.13C2555.87 1448 2571.2 1435.07 2585.47 1423.33C2599.6 1411.73 2621.47 1393.73 2634 1383.47C2674.67 1350 2691.2 1338.67 2725.33 1320.67C2742.4 1311.6 2755.73 1305.73 2768.67 1301.33C2787.2 1294.93 2831.33 1284.4 2856.53 1280.13C2875.2 1277.07 2876.13 1274.4 2864.13 1258.67C2856.67 1248.8 2820.8 1213.2 2808.67 1203.6C2804.27 1200.13 2796.8 1194.27 2792 1190.53C2787.33 1186.8 2781.87 1182.8 2780 1181.6C2778.13 1180.4 2772.93 1176.53 2768.27 1172.93C2763.73 1169.47 2754.8 1163.2 2748.27 1159.07C2741.87 1154.93 2731.73 1148.4 2725.6 1144.4C2719.47 1140.4 2712.27 1136.27 2709.6 1135.07C2706.93 1133.87 2699.73 1130.67 2693.6 1127.87C2687.47 1124.93 2682.13 1122.67 2681.6 1122.67C2681.07 1122.67 2675.73 1120.27 2669.6 1117.33C2663.6 1114.4 2658.13 1112 2657.6 1112C2657.07 1112 2653.07 1110.27 2648.67 1108C2644.27 1105.87 2640 1104 2639.2 1104C2637.73 1104 2630.53 1101.07 2619.07 1095.87C2615.87 1094.53 2612.93 1093.33 2612.27 1093.33C2611.6 1093.33 2608.67 1092.13 2605.6 1090.67C2602.67 1089.2 2599.2 1088 2598.13 1088C2597.07 1088 2595.87 1087.47 2595.47 1086.8C2595.07 1086.27 2591.87 1084.93 2588.4 1084C2584.8 1083.2 2580.8 1082 2579.33 1081.33C2572.27 1078.67 2557.73 1074.4 2542.67 1070.67C2533.47 1068.4 2522.67 1065.73 2518.67 1064.67C2494.13 1058.27 2445.73 1050.4 2416 1048C2401.73 1046.8 2349.33 1046.4 2343.33 1047.47Z" fill="url(#paint1_linear_459_47)"/>
<defs>
<linearGradient id="paint0_linear_459_47" x1="1266.5" y1="957.5" x2="2420.5" y2="957.5" gradientUnits="userSpaceOnUse">
<stop stop-color="#3EB4F1"/>
<stop offset="1" stop-color="#4D5B9A"/>
</linearGradient>
<linearGradient id="paint1_linear_459_47" x1="2960.5" y1="1686" x2="1560.5" y2="1686" gradientUnits="userSpaceOnUse">
<stop stop-color="#3E6141"/>
<stop offset="1" stop-color="#9FC850"/>
</linearGradient>
</defs>
</svg>
