<svg width="1505" height="1309" viewBox="0 0 1505 1309" fill="none" xmlns="http://www.w3.org/2000/svg">
<path d="M458.533 1.66672C445.467 3.93339 426 14.3334 414.267 25.5334C405.467 33.8001 396 48.3334 391.6 59.8001L388.667 67.6667L388 211.8C387.333 363.133 387.467 357.933 382 361.933C381.333 362.467 296.133 363 192.933 363C66.1334 363 4.2667 363.4 2.53337 364.333C3.33151e-05 365.8 3.32995e-05 369.267 3.32995e-05 554.733C3.32995e-05 761.267 -0.266634 751.667 7.8667 771C16.6667 791.667 34.1334 811.667 52.8 822.733C65.3334 830.2 83.4667 836.067 99.4667 837.667C114 839.267 400.4 839 402 837.4C402.533 837 403.467 832.733 404.133 828.067C407.867 802.2 419.333 748.867 426.533 723C432.267 703 441.2 676.733 445.333 667.667C446 666.2 449.067 659 452.133 651.667C458.267 636.733 466.4 620.067 478 598.333C487.067 581.4 514.933 538.2 525.467 525.133C549.6 494.867 559.2 483.933 580 463.133C638.667 404.333 708.8 358.333 784.667 328.867C791.333 326.2 800.4 322.733 804.933 320.867C816 316.467 839.733 309.8 868.533 302.867C883.867 299.267 893.333 296.333 894.933 294.733C897.2 292.467 897.333 285.933 897.333 149.8C897.333 7.66672 897.333 7.40005 894.533 3.80005L891.867 0.333387L678.267 0.466721C560.8 0.600054 461.867 1.13339 458.533 1.66672Z" fill="url(#paint0_linear_459_48)"/>
<path d="M975.333 326.466C973.867 326.733 963.333 327.933 952 329C920.4 332.066 893.067 336.733 868.4 343C865.6 343.666 860.667 344.733 857.333 345.533C842.667 348.733 805.067 362.733 782.4 373.533C776.133 376.6 770.533 379 770.133 379C769.733 379 766 380.6 761.733 382.466C740.667 391.8 725.6 400.066 718.4 405.933C716 407.933 711.333 410.866 708 412.466C704.667 414.066 700.267 416.733 698 418.6C695.867 420.333 689.467 425.133 684 429.133C662.133 445.133 635.067 473.4 610 506.2C584.8 539.133 571.733 560.066 560.667 585.4C551.2 607 533.067 655.266 532.267 660.6C531.6 666.066 534.533 671 538.4 671C539.6 671 562.267 658.6 588.933 643.533C639.733 614.733 644.8 612.2 686.667 594.066C713.733 582.2 730.133 577.266 821.2 552.866C943.2 520.2 989.733 514.466 1168.67 510.2C1226 508.733 1286.53 513.4 1330 522.466C1345.73 525.8 1349.47 527.266 1347.47 529.266C1346.93 529.933 1332.27 530.733 1314.93 531.266C1297.6 531.666 1272.27 533.4 1258.67 534.866C1234.53 537.666 1221.87 539 1197.07 541.666C1190.27 542.333 1180.13 543.533 1174.67 544.333C1169.2 545 1159.87 546.2 1154 547C1142.67 548.466 1136.27 549.4 1082 557.666C1051.87 562.333 992.267 574.466 946.8 585.133C921.733 591 795.733 625.533 782.667 630.066C775.733 632.6 762.267 637.133 752.667 640.333C716.267 652.333 654.667 678.6 622.4 695.8C559.467 729.266 534.133 746.866 495.467 784.333C467.6 811.266 445.6 841.266 422.933 883C408.533 909.666 389.733 959.666 385.2 983.666C384.667 986.6 382.933 995.533 381.2 1003.67C378.133 1018.33 378.133 1018.6 377.733 1160.6C377.2 1302.2 377.333 1303 380 1305.67C382.667 1308.33 383.333 1308.33 601.067 1308.33C844.267 1308.33 825.333 1309.13 845.6 1298.87C872.533 1285.4 891.867 1265.8 904.667 1238.73C915.067 1216.73 914.667 1222.73 914.667 1097.53C914.667 1006.2 914.933 985.666 916.4 984.466C917.733 983.4 967.467 983 1092.8 982.733C1260.13 982.333 1267.47 982.2 1272 979.8C1278 976.6 1283.6 971.4 1286.4 966.333C1288.53 962.733 1288.67 950.466 1289.07 829.933C1289.2 757.266 1288.93 697.666 1288.27 697.666C1287.73 697.666 1275.73 708.866 1261.6 722.6L1236.13 747.666L1235.47 836.2C1234.93 896.2 1234.27 925.266 1233.33 926.2C1232.27 927.266 1176.8 927.533 1048.27 927.133C868.8 926.733 864.667 926.733 862.4 929.266C860.267 931.666 860 941 859.733 1067.13L859.333 1202.33L854 1213C843.733 1233.8 822.267 1250.2 798.667 1255.13C786.533 1257.67 437.6 1257.13 435.067 1254.6C432.4 1251.93 432.533 1042.2 435.2 1027.67C453.2 928.333 493.067 857.133 555.2 813.8C582.267 794.866 580.4 795.533 590.667 801.266C601.2 807.133 627.6 820.333 646.933 829.533C660.533 835.933 669.333 839 711.333 852.2C742.933 862.066 773.733 868.866 796 871C804.4 871.8 814.667 873 818.667 873.666C832.667 875.933 870 877.933 883.333 877.133C962.267 872.066 1007.2 857.933 1063.33 821C1071.47 815.666 1080.67 809.8 1084 808.066C1089.6 804.866 1113.2 789.266 1129.33 777.8C1136.27 773 1165.6 747.533 1183.47 731.133C1187.87 727 1203.2 714.066 1217.47 702.333C1231.6 690.733 1253.47 672.733 1266 662.466C1306.67 629 1323.2 617.666 1357.33 599.666C1374.4 590.6 1387.73 584.733 1400.67 580.333C1419.2 573.933 1463.33 563.4 1488.53 559.133C1507.2 556.066 1508.13 553.4 1496.13 537.666C1488.67 527.8 1452.8 492.2 1440.67 482.6C1436.27 479.133 1428.8 473.266 1424 469.533C1419.33 465.8 1413.87 461.8 1412 460.6C1410.13 459.4 1404.93 455.533 1400.27 451.933C1395.73 448.466 1386.8 442.2 1380.27 438.066C1373.87 433.933 1363.73 427.4 1357.6 423.4C1351.47 419.4 1344.27 415.266 1341.6 414.066C1338.93 412.866 1331.73 409.666 1325.6 406.866C1319.47 403.933 1314.13 401.666 1313.6 401.666C1313.07 401.666 1307.73 399.266 1301.6 396.333C1295.6 393.4 1290.13 391 1289.6 391C1289.07 391 1285.07 389.266 1280.67 387C1276.27 384.866 1272 383 1271.2 383C1269.73 383 1262.53 380.066 1251.07 374.866C1247.87 373.533 1244.93 372.333 1244.27 372.333C1243.6 372.333 1240.67 371.133 1237.6 369.666C1234.67 368.2 1231.2 367 1230.13 367C1229.07 367 1227.87 366.466 1227.47 365.8C1227.07 365.266 1223.87 363.933 1220.4 363C1216.8 362.2 1212.8 361 1211.33 360.333C1204.27 357.666 1189.73 353.4 1174.67 349.666C1165.47 347.4 1154.67 344.733 1150.67 343.666C1126.13 337.266 1077.73 329.4 1048 327C1033.73 325.8 981.333 325.4 975.333 326.466Z" fill="url(#paint1_linear_459_48)"/>
<defs>
<linearGradient id="paint0_linear_459_48" x1="-101.5" y1="236.5" x2="1052.5" y2="236.5" gradientUnits="userSpaceOnUse">
<stop stop-color="#3EB4F1"/>
<stop offset="1" stop-color="#4D5B9A"/>
</linearGradient>
<linearGradient id="paint1_linear_459_48" x1="1592.5" y1="965" x2="192.5" y2="965" gradientUnits="userSpaceOnUse">
<stop stop-color="#3E6141"/>
<stop offset="1" stop-color="#9FC850"/>
</linearGradient>
</defs>
</svg>
