<svg width="64" height="64" viewBox="0 0 64 64" fill="none" xmlns="http://www.w3.org/2000/svg">
<ellipse cx="32" cy="32.2972" rx="32" ry="31.7028" fill="#202020"/>
<path d="M32.664 55.704C29.3787 55.704 26.2853 55.1067 23.384 53.912C20.5253 52.7173 18.0293 51.0747 15.896 48.984C13.7627 46.8507 12.0773 44.376 10.84 41.56C9.64533 38.7013 9.048 35.6293 9.048 32.344C9.048 29.0587 9.66667 26.008 10.904 23.192C12.1413 20.376 13.848 17.9227 16.024 15.832C18.2427 13.6987 20.824 12.056 23.768 10.904C26.712 9.70933 29.8693 9.112 33.24 9.112C37.1227 9.112 40.6427 9.816 43.8 11.224C47 12.632 49.6453 14.5733 51.736 17.048L44.888 23.896C43.4373 22.0187 41.7307 20.6107 39.768 19.672C37.8053 18.7333 35.5867 18.264 33.112 18.264C30.4667 18.264 28.0987 18.8613 26.008 20.056C23.9173 21.208 22.2747 22.8507 21.08 24.984C19.928 27.0747 19.352 29.528 19.352 32.344C19.352 35.16 19.928 37.6347 21.08 39.768C22.232 41.9013 23.8107 43.5653 25.816 44.76C27.8213 45.9547 30.1253 46.552 32.728 46.552C35.3733 46.552 37.6133 46.0613 39.448 45.08C41.3253 44.056 42.7547 42.6053 43.736 40.728C44.76 38.808 45.272 36.4827 45.272 33.752L51.928 38.232L31.768 37.912V29.4H55.512V30.872C55.512 36.2907 54.5307 40.856 52.568 44.568C50.648 48.2373 47.96 51.0107 44.504 52.888C41.0907 54.7653 37.144 55.704 32.664 55.704Z" fill="#FE18BE"/>
</svg>
