<svg width="66" height="64" viewBox="0 0 66 64" fill="none" xmlns="http://www.w3.org/2000/svg">
<path d="M21.955 51.5327C21.955 51.7974 21.6506 52.0091 21.2668 52.0091C20.8301 52.0488 20.5257 51.8371 20.5257 51.5327C20.5257 51.268 20.8301 51.0563 21.2139 51.0563C21.6109 51.0166 21.955 51.2283 21.955 51.5327ZM17.8393 50.9372C17.7466 51.2019 18.0113 51.5062 18.4083 51.5856C18.7524 51.718 19.1494 51.5856 19.2288 51.321C19.3082 51.0563 19.0568 50.7519 18.6598 50.6328C18.3157 50.5402 17.9319 50.6725 17.8393 50.9372ZM23.6886 50.7122C23.3049 50.8048 23.0402 51.0563 23.0799 51.3607C23.1196 51.6253 23.4637 51.7974 23.8607 51.7047C24.2445 51.6121 24.5091 51.3607 24.4694 51.096C24.4297 50.8445 24.0724 50.6725 23.6886 50.7122ZM32.3965 0C14.0411 0 0 13.9353 0 32.2906C0 46.967 9.23724 59.526 22.4314 63.9461C24.1254 64.2505 24.7209 63.205 24.7209 62.3448C24.7209 61.5243 24.6812 56.9983 24.6812 54.2192C24.6812 54.2192 15.4175 56.2043 13.4721 50.2755C13.4721 50.2755 11.9634 46.4244 9.79307 45.4319C9.79307 45.4319 6.76251 43.3542 10.0048 43.3939C10.0048 43.3939 13.3 43.6586 15.1131 46.8082C18.0113 51.9165 22.8681 50.4475 24.7606 49.5741C25.065 47.4567 25.9252 45.9877 26.878 45.1143C19.4803 44.2938 12.0164 43.2218 12.0164 30.4908C12.0164 26.8515 13.0221 25.0253 15.1396 22.6961C14.7955 21.8359 13.6706 18.2892 15.4836 13.7103C18.2495 12.8501 24.615 17.2834 24.615 17.2834C27.2618 16.5423 30.1071 16.1586 32.9259 16.1586C35.7447 16.1586 38.59 16.5423 41.2368 17.2834C41.2368 17.2834 47.6022 12.8369 50.3681 13.7103C52.1812 18.3024 51.0563 21.8359 50.7122 22.6961C52.8296 25.0385 54.1265 26.8648 54.1265 30.4908C54.1265 43.2615 46.3318 44.2805 38.9341 45.1143C40.1516 46.1597 41.1838 48.1448 41.1838 51.2548C41.1838 55.7146 41.1441 61.2331 41.1441 62.3183C41.1441 63.1785 41.7529 64.224 43.4336 63.9196C56.6674 59.526 65.64 46.967 65.64 32.2906C65.64 13.9353 50.7519 0 32.3965 0ZM12.8633 45.6436C12.6913 45.776 12.731 46.0803 12.956 46.3318C13.1677 46.5435 13.4721 46.6362 13.6441 46.4641C13.8162 46.3318 13.7765 46.0274 13.5515 45.776C13.3397 45.5642 13.0354 45.4716 12.8633 45.6436ZM11.4341 44.5717C11.3414 44.7437 11.4738 44.9555 11.7384 45.0878C11.9502 45.2201 12.2149 45.1804 12.3075 44.9952C12.4001 44.8231 12.2678 44.6114 12.0031 44.479C11.7384 44.3996 11.5267 44.4393 11.4341 44.5717ZM15.7218 49.2829C15.5101 49.455 15.5895 49.852 15.8939 50.1034C16.1983 50.4078 16.582 50.4475 16.7541 50.2358C16.9261 50.0637 16.8467 49.6667 16.582 49.4153C16.2909 49.1109 15.8939 49.0712 15.7218 49.2829ZM14.2132 47.3376C14.0014 47.4699 14.0014 47.814 14.2132 48.1184C14.4249 48.4227 14.7822 48.5551 14.9543 48.4227C15.166 48.2507 15.166 47.9066 14.9543 47.6022C14.769 47.2979 14.4249 47.1655 14.2132 47.3376Z" fill="#FE18BE"/>
</svg>
