<svg width="80" height="81" viewBox="0 0 80 81" fill="none" xmlns="http://www.w3.org/2000/svg">
<ellipse cx="40" cy="40.5062" rx="40" ry="39.5062" fill="#202020"/>
<path d="M40.664 64.704C37.3787 64.704 34.2853 64.1067 31.384 62.912C28.5253 61.7173 26.0293 60.0747 23.896 57.984C21.7627 55.8507 20.0773 53.376 18.84 50.56C17.6453 47.7013 17.048 44.6293 17.048 41.344C17.048 38.0587 17.6667 35.008 18.904 32.192C20.1413 29.376 21.848 26.9227 24.024 24.832C26.2427 22.6987 28.824 21.056 31.768 19.904C34.712 18.7093 37.8693 18.112 41.24 18.112C45.1227 18.112 48.6427 18.816 51.8 20.224C55 21.632 57.6453 23.5733 59.736 26.048L52.888 32.896C51.4373 31.0187 49.7307 29.6107 47.768 28.672C45.8053 27.7333 43.5867 27.264 41.112 27.264C38.4667 27.264 36.0987 27.8613 34.008 29.056C31.9173 30.208 30.2747 31.8507 29.08 33.984C27.928 36.0747 27.352 38.528 27.352 41.344C27.352 44.16 27.928 46.6347 29.08 48.768C30.232 50.9013 31.8107 52.5653 33.816 53.76C35.8213 54.9547 38.1253 55.552 40.728 55.552C43.3733 55.552 45.6133 55.0613 47.448 54.08C49.3253 53.056 50.7547 51.6053 51.736 49.728C52.76 47.808 53.272 45.4827 53.272 42.752L59.928 47.232L39.768 46.912V38.4H63.512V39.872C63.512 45.2907 62.5307 49.856 60.568 53.568C58.648 57.2373 55.96 60.0107 52.504 61.888C49.0907 63.7653 45.144 64.704 40.664 64.704Z" fill="#FE18BE"/>
</svg>
