<svg width="251" height="80" viewBox="0 0 251 80" fill="none" xmlns="http://www.w3.org/2000/svg">
<path d="M201.04 47.198C199.996 47.198 199.096 47.03 198.34 46.694C197.596 46.346 196.912 45.824 196.288 45.128L198.124 43.31C198.532 43.778 198.982 44.144 199.474 44.408C199.978 44.66 200.56 44.786 201.22 44.786C201.82 44.786 202.282 44.678 202.606 44.462C202.942 44.246 203.11 43.946 203.11 43.562C203.11 43.214 203.002 42.932 202.786 42.716C202.57 42.5 202.282 42.314 201.922 42.158C201.574 42.002 201.184 41.852 200.752 41.708C200.332 41.564 199.912 41.402 199.492 41.222C199.072 41.03 198.682 40.796 198.322 40.52C197.974 40.232 197.692 39.878 197.476 39.458C197.26 39.026 197.152 38.486 197.152 37.838C197.152 37.058 197.338 36.386 197.71 35.822C198.094 35.258 198.622 34.832 199.294 34.544C199.966 34.244 200.74 34.094 201.616 34.094C202.504 34.094 203.314 34.25 204.046 34.562C204.79 34.874 205.402 35.3 205.882 35.84L204.046 37.658C203.662 37.262 203.272 36.968 202.876 36.776C202.492 36.584 202.054 36.488 201.562 36.488C201.07 36.488 200.68 36.584 200.392 36.776C200.104 36.956 199.96 37.22 199.96 37.568C199.96 37.892 200.068 38.156 200.284 38.36C200.5 38.552 200.782 38.72 201.13 38.864C201.49 39.008 201.88 39.152 202.3 39.296C202.732 39.44 203.158 39.608 203.578 39.8C203.998 39.992 204.382 40.238 204.73 40.538C205.09 40.826 205.378 41.198 205.594 41.654C205.81 42.098 205.918 42.65 205.918 43.31C205.918 44.522 205.486 45.476 204.622 46.172C203.758 46.856 202.564 47.198 201.04 47.198ZM208.708 47V34.634H211.462V47H208.708ZM206.728 40.592V38.252H213.442V40.592H206.728ZM218.544 47.198C217.74 47.198 217.026 47.036 216.402 46.712C215.79 46.376 215.31 45.92 214.962 45.344C214.614 44.756 214.44 44.084 214.44 43.328V38.252H217.194V43.292C217.194 43.592 217.242 43.85 217.338 44.066C217.446 44.282 217.602 44.45 217.806 44.57C218.01 44.69 218.256 44.75 218.544 44.75C218.952 44.75 219.276 44.624 219.516 44.372C219.756 44.108 219.876 43.748 219.876 43.292V38.252H222.63V43.31C222.63 44.078 222.456 44.756 222.108 45.344C221.76 45.92 221.28 46.376 220.668 46.712C220.056 47.036 219.348 47.198 218.544 47.198ZM228.085 47.18C227.257 47.18 226.519 46.982 225.871 46.586C225.235 46.19 224.731 45.65 224.359 44.966C223.999 44.282 223.819 43.502 223.819 42.626C223.819 41.75 223.999 40.97 224.359 40.286C224.731 39.602 225.235 39.062 225.871 38.666C226.519 38.27 227.257 38.072 228.085 38.072C228.685 38.072 229.225 38.186 229.705 38.414C230.197 38.642 230.599 38.96 230.911 39.368C231.235 39.764 231.415 40.22 231.451 40.736V44.426C231.415 44.942 231.241 45.41 230.929 45.83C230.617 46.238 230.215 46.568 229.723 46.82C229.231 47.06 228.685 47.18 228.085 47.18ZM228.571 44.696C228.967 44.696 229.309 44.612 229.597 44.444C229.885 44.264 230.113 44.018 230.281 43.706C230.449 43.394 230.533 43.034 230.533 42.626C230.533 42.218 230.449 41.864 230.281 41.564C230.125 41.252 229.897 41.006 229.597 40.826C229.309 40.646 228.973 40.556 228.589 40.556C228.205 40.556 227.863 40.646 227.563 40.826C227.275 41.006 227.041 41.252 226.861 41.564C226.693 41.876 226.609 42.23 226.609 42.626C226.609 43.022 226.693 43.376 226.861 43.688C227.029 44 227.263 44.246 227.563 44.426C227.863 44.606 228.199 44.696 228.571 44.696ZM233.125 47H230.425V44.642L230.839 42.518L230.371 40.394V33.932H233.125V47ZM235.964 47V38.252H238.718V47H235.964ZM237.35 37.046C236.918 37.046 236.558 36.902 236.27 36.614C235.994 36.314 235.856 35.954 235.856 35.534C235.856 35.102 235.994 34.742 236.27 34.454C236.558 34.166 236.918 34.022 237.35 34.022C237.782 34.022 238.136 34.166 238.412 34.454C238.688 34.742 238.826 35.102 238.826 35.534C238.826 35.954 238.688 36.314 238.412 36.614C238.136 36.902 237.782 37.046 237.35 37.046ZM244.869 47.198C243.969 47.198 243.153 47 242.421 46.604C241.701 46.196 241.131 45.644 240.711 44.948C240.291 44.252 240.081 43.472 240.081 42.608C240.081 41.744 240.291 40.97 240.711 40.286C241.131 39.602 241.701 39.062 242.421 38.666C243.141 38.258 243.957 38.054 244.869 38.054C245.781 38.054 246.597 38.252 247.317 38.648C248.037 39.044 248.607 39.59 249.027 40.286C249.447 40.97 249.657 41.744 249.657 42.608C249.657 43.472 249.447 44.252 249.027 44.948C248.607 45.644 248.037 46.196 247.317 46.604C246.597 47 245.781 47.198 244.869 47.198ZM244.869 44.696C245.265 44.696 245.613 44.612 245.913 44.444C246.213 44.264 246.441 44.018 246.597 43.706C246.765 43.382 246.849 43.016 246.849 42.608C246.849 42.2 246.765 41.846 246.597 41.546C246.429 41.234 246.195 40.994 245.895 40.826C245.607 40.646 245.265 40.556 244.869 40.556C244.485 40.556 244.143 40.646 243.843 40.826C243.543 40.994 243.309 41.234 243.141 41.546C242.973 41.858 242.889 42.218 242.889 42.626C242.889 43.022 242.973 43.382 243.141 43.706C243.309 44.018 243.543 44.264 243.843 44.444C244.143 44.612 244.485 44.696 244.869 44.696Z" fill="#FE18BE"/>
<path d="M94.218 47.198C93.294 47.198 92.424 47.03 91.608 46.694C90.804 46.358 90.102 45.896 89.502 45.308C88.902 44.708 88.428 44.012 88.08 43.22C87.744 42.416 87.576 41.552 87.576 40.628C87.576 39.704 87.75 38.846 88.098 38.054C88.446 37.262 88.926 36.572 89.538 35.984C90.162 35.384 90.888 34.922 91.716 34.598C92.544 34.262 93.432 34.094 94.38 34.094C95.472 34.094 96.462 34.292 97.35 34.688C98.25 35.084 98.994 35.63 99.582 36.326L97.656 38.252C97.248 37.724 96.768 37.328 96.216 37.064C95.664 36.8 95.04 36.668 94.344 36.668C93.6 36.668 92.934 36.836 92.346 37.172C91.758 37.496 91.296 37.958 90.96 38.558C90.636 39.146 90.474 39.836 90.474 40.628C90.474 41.42 90.636 42.116 90.96 42.716C91.284 43.316 91.728 43.784 92.292 44.12C92.856 44.456 93.504 44.624 94.236 44.624C94.98 44.624 95.61 44.486 96.126 44.21C96.654 43.922 97.056 43.514 97.332 42.986C97.62 42.446 97.764 41.792 97.764 41.024L99.636 42.284L93.966 42.194V39.8H100.644V40.214C100.644 41.738 100.368 43.022 99.816 44.066C99.276 45.098 98.52 45.878 97.548 46.406C96.588 46.934 95.478 47.198 94.218 47.198ZM107.325 47.198C106.377 47.198 105.531 47.006 104.787 46.622C104.055 46.226 103.479 45.68 103.059 44.984C102.639 44.288 102.429 43.502 102.429 42.626C102.429 41.75 102.633 40.97 103.041 40.286C103.461 39.59 104.025 39.044 104.733 38.648C105.441 38.252 106.239 38.054 107.127 38.054C107.991 38.054 108.753 38.24 109.413 38.612C110.073 38.984 110.589 39.5 110.961 40.16C111.345 40.82 111.537 41.576 111.537 42.428C111.537 42.584 111.525 42.752 111.501 42.932C111.489 43.1 111.459 43.298 111.411 43.526L103.869 43.544V41.654L110.241 41.636L109.053 42.428C109.041 41.924 108.963 41.51 108.819 41.186C108.675 40.85 108.459 40.598 108.171 40.43C107.895 40.25 107.553 40.16 107.145 40.16C106.713 40.16 106.335 40.262 106.011 40.466C105.699 40.658 105.453 40.934 105.273 41.294C105.105 41.654 105.021 42.092 105.021 42.608C105.021 43.124 105.111 43.568 105.291 43.94C105.483 44.3 105.747 44.582 106.083 44.786C106.431 44.978 106.839 45.074 107.307 45.074C107.739 45.074 108.129 45.002 108.477 44.858C108.825 44.702 109.131 44.474 109.395 44.174L110.907 45.686C110.475 46.19 109.953 46.568 109.341 46.82C108.729 47.072 108.057 47.198 107.325 47.198ZM113.766 47V38.252H116.52V47H113.766ZM116.52 42.194L115.368 41.294C115.596 40.274 115.98 39.482 116.52 38.918C117.06 38.354 117.81 38.072 118.77 38.072C119.19 38.072 119.556 38.138 119.868 38.27C120.192 38.39 120.474 38.582 120.714 38.846L119.076 40.916C118.956 40.784 118.806 40.682 118.626 40.61C118.446 40.538 118.242 40.502 118.014 40.502C117.558 40.502 117.192 40.646 116.916 40.934C116.652 41.21 116.52 41.63 116.52 42.194ZM122.295 47V38.252H125.049V47H122.295ZM127.893 47V41.888C127.893 41.444 127.755 41.102 127.479 40.862C127.215 40.61 126.885 40.484 126.489 40.484C126.213 40.484 125.967 40.544 125.751 40.664C125.535 40.772 125.361 40.928 125.229 41.132C125.109 41.336 125.049 41.588 125.049 41.888L123.987 41.42C123.987 40.724 124.137 40.13 124.437 39.638C124.737 39.134 125.145 38.75 125.661 38.486C126.177 38.21 126.759 38.072 127.407 38.072C128.019 38.072 128.565 38.21 129.045 38.486C129.537 38.762 129.927 39.146 130.215 39.638C130.503 40.13 130.647 40.718 130.647 41.402V47H127.893ZM133.491 47V41.888C133.491 41.444 133.353 41.102 133.077 40.862C132.813 40.61 132.483 40.484 132.087 40.484C131.811 40.484 131.565 40.544 131.349 40.664C131.133 40.772 130.959 40.928 130.827 41.132C130.707 41.336 130.647 41.588 130.647 41.888L129.063 41.672C129.087 40.928 129.261 40.292 129.585 39.764C129.921 39.224 130.359 38.81 130.899 38.522C131.451 38.222 132.069 38.072 132.753 38.072C133.425 38.072 134.019 38.216 134.535 38.504C135.063 38.78 135.477 39.182 135.777 39.71C136.089 40.226 136.245 40.85 136.245 41.582V47H133.491ZM143.23 47.198C142.282 47.198 141.436 47.006 140.692 46.622C139.96 46.226 139.384 45.68 138.964 44.984C138.544 44.288 138.334 43.502 138.334 42.626C138.334 41.75 138.538 40.97 138.946 40.286C139.366 39.59 139.93 39.044 140.638 38.648C141.346 38.252 142.144 38.054 143.032 38.054C143.896 38.054 144.658 38.24 145.318 38.612C145.978 38.984 146.494 39.5 146.866 40.16C147.25 40.82 147.442 41.576 147.442 42.428C147.442 42.584 147.43 42.752 147.406 42.932C147.394 43.1 147.364 43.298 147.316 43.526L139.774 43.544V41.654L146.146 41.636L144.958 42.428C144.946 41.924 144.868 41.51 144.724 41.186C144.58 40.85 144.364 40.598 144.076 40.43C143.8 40.25 143.458 40.16 143.05 40.16C142.618 40.16 142.24 40.262 141.916 40.466C141.604 40.658 141.358 40.934 141.178 41.294C141.01 41.654 140.926 42.092 140.926 42.608C140.926 43.124 141.016 43.568 141.196 43.94C141.388 44.3 141.652 44.582 141.988 44.786C142.336 44.978 142.744 45.074 143.212 45.074C143.644 45.074 144.034 45.002 144.382 44.858C144.73 44.702 145.036 44.474 145.3 44.174L146.812 45.686C146.38 46.19 145.858 46.568 145.246 46.82C144.634 47.072 143.962 47.198 143.23 47.198ZM152.857 47.216C152.341 47.216 151.831 47.15 151.327 47.018C150.835 46.886 150.373 46.7 149.941 46.46C149.521 46.208 149.161 45.92 148.861 45.596L150.427 44.012C150.715 44.324 151.057 44.57 151.453 44.75C151.849 44.918 152.281 45.002 152.749 45.002C153.073 45.002 153.319 44.954 153.487 44.858C153.667 44.762 153.757 44.63 153.757 44.462C153.757 44.246 153.649 44.084 153.433 43.976C153.229 43.856 152.965 43.754 152.641 43.67C152.317 43.574 151.975 43.472 151.615 43.364C151.255 43.256 150.913 43.106 150.589 42.914C150.265 42.722 150.001 42.458 149.797 42.122C149.593 41.774 149.491 41.336 149.491 40.808C149.491 40.244 149.635 39.758 149.923 39.35C150.211 38.93 150.619 38.6 151.147 38.36C151.675 38.12 152.293 38 153.001 38C153.745 38 154.429 38.132 155.053 38.396C155.689 38.648 156.205 39.026 156.601 39.53L155.035 41.114C154.759 40.79 154.447 40.562 154.099 40.43C153.763 40.298 153.433 40.232 153.109 40.232C152.797 40.232 152.563 40.28 152.407 40.376C152.251 40.46 152.173 40.586 152.173 40.754C152.173 40.934 152.275 41.078 152.479 41.186C152.683 41.294 152.947 41.39 153.271 41.474C153.595 41.558 153.937 41.66 154.297 41.78C154.657 41.9 154.999 42.062 155.323 42.266C155.647 42.47 155.911 42.746 156.115 43.094C156.319 43.43 156.421 43.874 156.421 44.426C156.421 45.278 156.097 45.956 155.449 46.46C154.813 46.964 153.949 47.216 152.857 47.216ZM161.931 47L166.971 34.292H169.527L174.513 47H171.525L167.709 36.452H168.735L164.865 47H161.931ZM164.793 44.696V42.392H171.723V44.696H164.793ZM176.647 47V38.252H179.401V47H176.647ZM179.401 42.194L178.249 41.294C178.477 40.274 178.861 39.482 179.401 38.918C179.941 38.354 180.691 38.072 181.651 38.072C182.071 38.072 182.437 38.138 182.749 38.27C183.073 38.39 183.355 38.582 183.595 38.846L181.957 40.916C181.837 40.784 181.687 40.682 181.507 40.61C181.327 40.538 181.123 40.502 180.895 40.502C180.439 40.502 180.073 40.646 179.797 40.934C179.533 41.21 179.401 41.63 179.401 42.194ZM186.558 47V34.634H189.312V47H186.558ZM184.578 40.592V38.252H191.292V40.592H184.578Z" fill="white"/>
<ellipse cx="40" cy="39.5062" rx="40" ry="39.5062" fill="#202020"/>
<path d="M40.7639 20.0305C40.7136 20.0665 40.6849 20.1348 40.3183 21.008C39.9733 21.8382 39.808 22.2299 39.7002 22.4707C39.6643 22.5533 39.6319 22.6324 39.6319 22.6468C39.6319 22.6612 39.5996 22.7366 39.5636 22.8193C39.4774 22.9954 39.1504 23.768 38.906 24.3682C38.809 24.6054 38.6436 25.0007 38.5358 25.2486C38.4316 25.4966 38.2376 25.9566 38.1046 26.2729C37.9716 26.5891 37.8279 26.9341 37.7776 27.0383C37.7308 27.1425 37.6913 27.236 37.6913 27.2468C37.6913 27.2611 37.3822 27.9978 37.2421 28.3213C37.2133 28.3788 37.0876 28.6878 36.9582 29.0041C36.8252 29.3203 36.6887 29.6438 36.6527 29.7228C36.6168 29.8019 36.4946 30.093 36.3796 30.3697C36.2646 30.6464 36.1424 30.9375 36.1101 31.0166C36.0777 31.0956 36.013 31.2574 35.9663 31.3759C35.9232 31.4945 35.801 31.7928 35.6968 32.0408C35.5926 32.2888 35.4057 32.7308 35.2835 33.0291C35.1613 33.3237 34.9852 33.755 34.8882 33.9814C34.7912 34.2078 34.6546 34.5384 34.5827 34.7181C34.5109 34.8942 34.3995 35.1709 34.3312 35.329C34.2629 35.4872 34.0365 36.037 33.8245 36.5509C33.2531 37.9309 33.2027 38.0531 32.8074 39.0126C32.6062 39.4978 32.3762 40.0584 32.2935 40.2596L32.1462 40.6298L30.184 40.6334C28.5381 40.6406 24.7072 40.6585 24.4951 40.6657C24.4556 40.6657 24.4305 40.6945 24.4305 40.7376C24.4305 40.7879 24.5203 40.8526 24.7898 40.9892C25.1779 41.1904 25.4762 41.4492 25.5984 41.6899C25.6379 41.769 25.6811 41.8373 25.6954 41.8445C25.7098 41.8517 25.7673 41.9739 25.8248 42.114C25.9039 42.3045 25.9434 42.4842 25.9758 42.8004C26.0333 43.3467 26.0081 43.7563 25.8679 44.4427C25.5804 45.8479 25.0198 46.678 23.7728 47.519C22.7737 48.1946 22.2275 48.4174 21.3614 48.4965C20.675 48.5612 19.8341 48.4462 19.1728 48.1982C18.4541 47.9287 17.6455 47.404 17.1891 46.9116C16.6105 46.2863 16.1325 45.3448 15.845 44.2595C15.5791 43.2496 15.4533 42.2254 15.421 40.8095C15.3455 37.1798 16.0642 34.4881 17.5125 33.0003C18.3175 32.1738 19.313 31.7353 20.5672 31.6598C21.9256 31.5808 23.2194 32.0156 24.2328 32.8997C25.1744 33.7191 25.9937 35.1026 26.5508 36.8204L26.7197 37.3415L27.3486 37.3523L27.9775 37.3595L27.9631 37.1726C27.9307 36.6983 27.6936 31.7425 27.6648 30.8764C27.6432 30.3445 27.6181 29.8989 27.6109 29.8881C27.5857 29.863 27.4995 29.96 27.0503 30.5135C26.6406 31.0202 26.5543 31.128 26.4968 31.1927C26.4753 31.2142 26.4034 31.3041 26.3351 31.3939C25.9506 31.897 25.7458 32.1127 25.6667 32.1127C25.6164 32.1127 25.4367 32.0048 25.2426 31.8647C23.7728 30.7722 22.7306 30.4236 20.9517 30.4236C20.2114 30.4236 19.7406 30.4703 19.1297 30.6033C17.9474 30.862 16.7291 31.4622 15.6618 32.3139C15.2628 32.6337 14.4471 33.4495 14.138 33.8376C12.9521 35.3255 12.2585 37.0648 12.0465 39.0845C11.9674 39.8607 11.9926 41.4851 12.0968 42.1571C12.3627 43.8426 12.8946 45.1615 13.8074 46.3798C14.3033 47.041 15.1263 47.828 15.7983 48.2808C17.1963 49.2188 18.7056 49.7004 20.4091 49.7471C21.1781 49.7686 21.6956 49.7327 22.3102 49.6105C23.5105 49.3697 24.6137 48.766 25.6918 47.7598L26.0153 47.4579L26.2201 47.6627C26.3351 47.7777 26.5292 47.9826 26.655 48.1227C26.7807 48.2593 27.0395 48.536 27.23 48.7337C27.4204 48.9313 27.6828 49.2116 27.8193 49.3554L28.0601 49.6141L28.0637 46.7499C28.0673 43.9001 28.0889 42.707 28.1392 42.6567C28.1571 42.6423 28.229 42.6495 28.3009 42.6746C28.4051 42.707 28.4626 42.7106 28.5417 42.6782C28.6136 42.6531 29.0735 42.6387 29.9612 42.6423C30.6799 42.6423 31.2765 42.6495 31.2837 42.6531C31.2873 42.6603 31.1363 43.0268 30.9459 43.4724C30.759 43.9145 30.5506 44.4068 30.4859 44.5649C30.3098 44.9962 29.8318 46.1174 29.1023 47.7993C28.7393 48.6294 28.4159 49.3949 28.3764 49.4991L28.3081 49.6896L28.4051 49.8046C28.5129 49.934 28.6495 50.0993 29.0664 50.5844C29.2281 50.7713 29.4293 51.0049 29.5084 51.1019C29.591 51.199 29.7312 51.3607 29.821 51.4649C29.9792 51.6446 30.1517 51.8494 30.4607 52.216C30.8309 52.658 30.9171 52.7227 31.3268 52.8593C31.5353 52.9311 32.1606 53.1432 32.714 53.3336C33.2674 53.5241 33.9538 53.7577 34.2413 53.8547C35.3482 54.2285 36.0418 54.4657 36.5952 54.6633C37.0588 54.825 37.1846 54.8574 37.2529 54.8286C37.3535 54.7819 37.3571 54.6525 37.2601 54.5339C37.2205 54.4872 37.1127 54.3578 37.0193 54.2464C36.9223 54.135 36.7102 53.8763 36.5413 53.675C36.3724 53.4738 36.1712 53.2294 36.0921 53.136C36.013 53.0461 35.8837 52.8916 35.8046 52.7946C35.7255 52.7011 35.5962 52.5466 35.5171 52.4568C35.438 52.3633 35.3087 52.2088 35.2296 52.1118C35.1505 52.0183 35.0212 51.8638 34.9421 51.7704C34.863 51.6769 34.7085 51.4936 34.6007 51.3571C34.4929 51.2205 34.3312 51.03 34.2449 50.9294C34.0688 50.721 33.9035 50.5233 33.6556 50.2322C33.5621 50.1208 33.4291 49.9627 33.3645 49.8836C33.2423 49.7435 33.0913 49.5638 32.8398 49.2583C32.7715 49.1757 32.7104 49.1002 32.7032 49.093C32.696 49.0858 32.7248 49.0104 32.7679 48.9241C32.811 48.8415 32.9009 48.6151 32.9692 48.4282C33.0374 48.2413 33.1057 48.0796 33.1201 48.0688C33.1381 48.058 33.2027 47.8963 33.2674 47.7094C33.3321 47.5226 33.3968 47.3609 33.4112 47.3501C33.4256 47.3393 33.4902 47.1776 33.5549 46.9907C33.6232 46.8038 33.6915 46.6313 33.7095 46.6098C33.7274 46.5846 33.7885 46.4337 33.8496 46.2684C33.9107 46.103 33.979 45.9341 34.0041 45.8946C34.0293 45.8551 34.0796 45.7329 34.1155 45.6251C34.1515 45.5173 34.2234 45.3304 34.2773 45.2118C34.3312 45.0932 34.421 44.874 34.4713 44.7266C34.5252 44.5793 34.5899 44.4248 34.6151 44.3852C34.6402 44.3457 34.6905 44.2235 34.7265 44.1157C34.7624 44.0079 34.8343 43.821 34.8882 43.7024C34.9421 43.5838 35.032 43.3682 35.0823 43.2209C35.1362 43.0735 35.2044 42.9082 35.2368 42.8507L35.2979 42.7501H40.8358H46.3738L46.4349 42.8507C46.4672 42.9082 46.5355 43.0735 46.5894 43.2209C46.6397 43.3682 46.7295 43.5838 46.7834 43.7024C46.8373 43.821 46.9092 44.0079 46.9452 44.1157C46.9811 44.2235 47.0314 44.3457 47.0566 44.3852C47.0817 44.4248 47.1536 44.5937 47.2147 44.7626C47.2758 44.9315 47.3656 45.1471 47.4088 45.2477C47.4555 45.3448 47.5202 45.5173 47.5561 45.6251C47.592 45.7329 47.6423 45.8551 47.6675 45.8946C47.6927 45.9341 47.7609 46.103 47.822 46.2684C47.8831 46.4337 47.9442 46.5846 47.9622 46.6098C47.9802 46.6313 48.0484 46.8038 48.1167 46.9907C48.1814 47.1776 48.2461 47.3393 48.2605 47.3501C48.2712 47.3609 48.3359 47.5118 48.4006 47.6915C48.4653 47.8676 48.53 48.0329 48.548 48.0544C48.5659 48.076 48.6342 48.2449 48.7025 48.4318C48.7708 48.6187 48.8606 48.8379 48.9001 48.9205L48.9756 49.0751L48.8067 49.2835C48.7097 49.3985 48.5695 49.5746 48.4905 49.6716C48.4114 49.7686 48.3072 49.8908 48.2569 49.9447C48.2066 49.9951 48.088 50.1388 47.9873 50.261C47.8903 50.3832 47.7645 50.5305 47.7106 50.588C47.6567 50.6455 47.5777 50.7461 47.5309 50.8108C47.4878 50.8755 47.4088 50.9654 47.3584 51.0157C47.3081 51.066 47.1788 51.2205 47.0709 51.3535C46.9631 51.49 46.8086 51.6769 46.7295 51.7704C46.5858 51.9357 46.5355 51.9968 46.097 52.525C45.9749 52.6724 45.8455 52.8269 45.8095 52.8664C45.7161 52.9707 45.4789 53.2546 45.1303 53.675C44.9614 53.8763 44.7602 54.1171 44.6775 54.2105C44.5949 54.3003 44.5122 54.4117 44.487 54.4585C44.4655 54.5016 44.426 54.5375 44.4008 54.5375C44.3721 54.5375 44.3505 54.5914 44.3469 54.6597C44.3325 54.8502 44.4295 54.8861 44.6919 54.7963C45.2345 54.6058 46.9667 54.0092 47.4303 53.8547C47.7178 53.7577 48.3323 53.5457 48.7959 53.3875C49.2595 53.2258 49.8884 53.0138 50.1903 52.9132C50.7869 52.7119 50.794 52.7047 51.2109 52.216C51.2972 52.1154 51.4481 51.9393 51.5451 51.8243C51.8614 51.4541 52.0087 51.2816 52.1633 51.1019C52.2423 51.0049 52.4436 50.7713 52.6053 50.5844C53.4211 49.6321 53.3636 49.7147 53.3276 49.5926C53.2953 49.4812 53.0329 48.863 52.2818 47.1344C52.0303 46.5523 51.6781 45.7257 51.4984 45.3016C51.3187 44.8776 50.9917 44.1085 50.7761 43.5982C50.5569 43.0843 50.3844 42.6603 50.388 42.6531C50.3951 42.6495 50.9881 42.6423 51.7104 42.6423C52.6125 42.6387 53.0545 42.6531 53.1372 42.6818C53.2018 42.7034 53.2737 42.7142 53.3025 42.7034C53.36 42.6818 53.3851 43.4329 53.4139 46.218C53.4247 47.1668 53.4426 48.3096 53.4534 48.7588L53.475 49.571L53.8056 49.226C54.1398 48.8738 54.7436 48.2126 54.9089 48.0185C54.9556 47.961 55.0598 47.8424 55.1389 47.7562L55.2862 47.5944L55.8756 48.0365C57.5574 49.2979 58.6967 49.6968 60.7451 49.7471C61.701 49.7686 62.3155 49.7147 63.0127 49.5458C65.0288 49.0499 66.4735 47.7382 66.9982 45.9305C67.1814 45.2981 67.2138 45.0249 67.2138 44.1157C67.2138 43.1634 67.1707 42.8363 66.9586 42.1715C66.725 41.442 66.3729 40.8562 65.8338 40.2956C65.4816 39.929 65.1043 39.6667 64.5688 39.4115C63.7494 39.0162 63.1098 38.8186 60.6157 38.1897C59.6741 37.9489 58.7146 37.6901 58.4846 37.6111C56.6626 36.9822 55.7714 35.94 55.8504 34.5205C55.8756 34.0641 55.9403 33.8053 56.1235 33.4244C56.5153 32.5978 57.3454 32.012 58.4702 31.7641C58.9267 31.667 60.0731 31.6742 60.569 31.782C61.5177 31.9869 62.2724 32.3714 62.9624 33.0075C63.541 33.5358 64.1879 34.5025 64.6335 35.498C64.8707 36.0298 65.2193 37.0468 65.2193 37.205C65.2193 37.2804 65.2408 37.3308 65.284 37.3523C65.3163 37.3703 65.5822 37.3775 65.8733 37.3667C66.3333 37.3523 66.4052 37.3451 66.4232 37.2912C66.4447 37.2158 66.1249 29.9636 66.0961 29.9169C66.0854 29.8989 66.0422 29.8845 65.9991 29.8845C65.9416 29.8845 65.8302 29.996 65.593 30.2906C64.8563 31.1963 64.2022 31.9905 64.1412 32.0552C64.0801 32.1198 64.0693 32.1163 63.8501 31.9258C63.1098 31.3005 62.3048 30.8836 61.3632 30.6392C60.2635 30.3589 58.7685 30.3445 57.7084 30.6069C55.9726 31.0417 54.5711 32.3175 54.0679 33.9275C53.5648 35.5303 53.7625 37.4134 54.5459 38.585C55.0167 39.2857 55.9439 39.929 57.2053 40.425C57.8342 40.6693 58.2977 40.8059 60.0802 41.2587C63.3937 42.1032 63.5123 42.1428 64.0369 42.5632C64.8347 43.1993 65.1905 43.9396 65.1905 44.9602C65.1905 45.6251 65.0504 46.1641 64.7485 46.6744C64.2202 47.5657 63.3038 48.1766 62.0927 48.4462C61.6687 48.5396 60.5582 48.5612 60.0443 48.4857C59.2788 48.3707 58.7901 48.2198 58.1396 47.8855C57.0292 47.3141 56.1128 46.3582 55.4695 45.0932C55.0167 44.2127 54.9089 43.8102 54.8873 42.9657C54.8729 42.3692 54.8909 42.3045 55.2575 41.6432C55.3976 41.3809 55.7462 41.0467 56.0014 40.9209C56.217 40.8131 56.2853 40.7376 56.2026 40.6837C56.181 40.6729 54.7148 40.6621 52.9395 40.6621C51.1642 40.6585 49.6692 40.6514 49.6153 40.6406C49.5542 40.6298 49.5075 40.5939 49.4931 40.5471C49.4716 40.4753 49.2991 40.0548 48.76 38.7611C48.6666 38.5347 48.415 37.9273 48.203 37.4134C47.9909 36.8995 47.6387 36.0514 47.4231 35.5267C47.2075 35.002 46.9344 34.348 46.8194 34.0712C46.7044 33.7945 46.5283 33.3741 46.4313 33.1369C45.9497 31.9761 45.8742 31.8 45.8311 31.6994C45.8059 31.6383 45.7269 31.437 45.6514 31.2502C45.5113 30.8872 45.2885 30.3517 44.656 28.8603C44.4403 28.3464 44.16 27.6816 44.0342 27.3869C43.9121 27.0886 43.6928 26.5783 43.5527 26.2441C43.4125 25.9135 43.2975 25.6332 43.2975 25.6224C43.2975 25.6116 43.258 25.5146 43.2077 25.4032C43.0891 25.148 42.6147 24.0268 42.6147 24.0088C42.6147 23.998 42.5752 23.9082 42.5285 23.804C42.4817 23.6997 42.3632 23.4194 42.2625 23.1822C42.1619 22.9451 41.9247 22.3773 41.7343 21.9244C41.206 20.6702 41.0443 20.2857 40.9832 20.1348C40.9293 20.0054 40.8502 19.9659 40.7639 20.0305ZM40.9436 29.712C40.9975 29.8163 41.0874 30.0319 41.1485 30.19C41.2096 30.3481 41.2707 30.4955 41.2886 30.5135C41.303 30.535 41.3641 30.6788 41.4216 30.8369C41.5761 31.2394 41.8816 31.9833 42.0793 32.4181C42.1978 32.6841 42.5321 33.5286 42.6471 33.852C42.7117 34.0317 42.7764 34.1934 42.7944 34.215C42.8124 34.2366 42.8699 34.3731 42.9238 34.5205C42.9741 34.6678 43.0639 34.887 43.1178 35.0056C43.1717 35.1242 43.258 35.3326 43.3011 35.4728C43.3478 35.6094 43.4053 35.7423 43.4233 35.7639C43.4449 35.7854 43.5096 35.94 43.5635 36.1053C43.621 36.2706 43.6785 36.4144 43.6892 36.4251C43.7252 36.4575 43.7935 36.6156 43.8941 36.9103C43.948 37.0684 44.0055 37.205 44.0199 37.2158C44.0342 37.2265 44.0989 37.3811 44.1636 37.5572C44.2247 37.7368 44.2858 37.8878 44.3002 37.8986C44.3146 37.9093 44.3756 38.0531 44.4403 38.222C44.5805 38.5993 44.8608 39.2929 44.9686 39.5337C45.0117 39.6307 45.0764 39.8032 45.1124 39.9111C45.1483 40.0189 45.1914 40.1159 45.2058 40.1267C45.231 40.1446 45.4178 40.601 45.4178 40.6478C45.4178 40.6585 43.355 40.6657 40.8358 40.6657C38.3166 40.6657 36.2538 40.6585 36.2538 40.6478C36.2538 40.601 36.4407 40.1446 36.4658 40.1267C36.4802 40.1159 36.5233 40.0189 36.5593 39.9111C36.5952 39.8032 36.6599 39.6307 36.703 39.5337C36.8108 39.2929 37.0912 38.5993 37.2313 38.222C37.296 38.0531 37.3571 37.9093 37.3715 37.8986C37.3858 37.8878 37.4469 37.7368 37.508 37.5572C37.5727 37.3811 37.6374 37.2265 37.6518 37.2158C37.6662 37.205 37.7237 37.0684 37.7776 36.9103C37.8782 36.6156 37.9465 36.4575 37.9824 36.4251C37.9932 36.4144 38.0507 36.2706 38.1082 36.1053C38.1621 35.94 38.2268 35.7854 38.2483 35.7639C38.2663 35.7423 38.3238 35.6094 38.3705 35.4728C38.4136 35.3326 38.4999 35.1242 38.5538 35.0056C38.6077 34.887 38.6976 34.6678 38.7479 34.5205C38.8018 34.3731 38.8593 34.233 38.8808 34.2114C38.8988 34.1898 38.9527 34.0605 38.9994 33.9239C39.118 33.5753 39.5277 32.5439 39.6858 32.2025C39.7613 32.0444 39.8404 31.8539 39.8655 31.782C39.9266 31.6131 40.2608 30.8189 40.3686 30.5853C40.4154 30.4847 40.4944 30.2906 40.5483 30.1541C40.5986 30.0175 40.6633 29.881 40.6885 29.8486C40.7136 29.8199 40.7568 29.7336 40.7855 29.6581C40.8107 29.5863 40.8358 29.5252 40.8394 29.5252C40.8466 29.5252 40.8933 29.6114 40.9436 29.712Z" fill="#FE18BE"/>
<path d="M31.8731 53.7613C31.83 53.8116 31.8623 53.8368 32.2648 54.1171C32.3151 54.1494 32.4912 54.2752 32.6601 54.3938C32.829 54.5124 33.0483 54.6633 33.1453 54.7316C33.2459 54.7963 33.3465 54.8753 33.3753 54.9077C33.4004 54.9436 33.4364 54.9688 33.4508 54.9688C33.4651 54.9688 33.5729 55.0335 33.6879 55.1125C34.0401 55.3569 34.2845 55.5222 34.3743 55.5797C34.4175 55.6085 34.6762 55.7846 34.9493 55.9714C35.2225 56.1583 35.7759 56.5321 36.182 56.8052C37.1487 57.4592 37.2996 57.5635 38.4784 58.3756C38.6293 58.4763 38.8881 58.6559 39.0534 58.7709C39.2187 58.8824 39.4235 59.0225 39.5098 59.0836C39.6895 59.213 40.2249 59.5795 40.3507 59.6658C40.401 59.6981 40.5232 59.788 40.6238 59.8634C40.7245 59.9389 40.8215 60 40.8359 60C40.8502 60 40.9473 59.9389 41.0479 59.8634C41.1485 59.788 41.2707 59.6981 41.321 59.6658C41.4468 59.5795 41.9823 59.213 42.162 59.0836C42.2482 59.0225 42.453 58.8824 42.6184 58.7674C42.7837 58.6559 43.0424 58.4763 43.1934 58.372C44.1493 57.7144 44.5733 57.4269 45.4897 56.8052C45.8958 56.5321 46.4493 56.1583 46.7224 55.9714C46.9955 55.7846 47.2543 55.6085 47.2974 55.5797C47.3872 55.5222 47.6316 55.3569 47.9838 55.1125C48.0988 55.0335 48.203 54.9688 48.2138 54.9688C48.2246 54.9688 48.2713 54.9328 48.318 54.8897C48.3647 54.8466 48.4582 54.7783 48.5229 54.7388C48.6379 54.6669 49.141 54.3147 49.6333 53.9589C49.8166 53.826 49.8346 53.8008 49.7878 53.7541C49.7411 53.7074 49.716 53.711 49.5722 53.7793C49.4824 53.8188 49.3997 53.8547 49.3889 53.8547C49.3782 53.8547 48.548 54.1602 47.5454 54.5339C46.5391 54.9113 45.6551 55.2383 45.576 55.2671C45.0441 55.4647 44.9112 55.5114 44.7351 55.5797C44.6273 55.6228 44.408 55.7019 44.2499 55.7594C44.0918 55.8169 43.8726 55.8996 43.7648 55.9391C43.6569 55.9822 43.4449 56.0613 43.2976 56.1152C43.1502 56.1727 42.737 56.3272 42.3812 56.4602C42.0254 56.5931 41.6121 56.7513 41.4648 56.8052C41.3174 56.8591 41.1162 56.9345 41.0192 56.9741C40.8467 57.0424 40.8395 57.0424 40.6598 56.9741C40.5592 56.9345 40.3651 56.8627 40.2249 56.8124C39.7146 56.6255 39.6499 56.6003 39.5709 56.5572C39.5278 56.5321 39.4667 56.5141 39.4379 56.5141C39.4092 56.5141 39.3301 56.4925 39.2654 56.4638C39.2007 56.435 39.0749 56.3847 38.9851 56.3524C38.8953 56.32 38.7515 56.2625 38.6617 56.2266C38.5071 56.1655 38.349 56.1044 38.0615 55.9966C37.4721 55.7774 36.2646 55.3282 36.1101 55.2707C36.0418 55.2455 35.2153 54.94 34.2773 54.5914C33.3394 54.2428 32.4589 53.9158 32.3187 53.8655C32.1822 53.8152 32.0528 53.7613 32.0348 53.7433C31.9845 53.6966 31.9198 53.7038 31.8731 53.7613Z" fill="#FE18BE"/>
</svg>
