<svg width="251" height="80" viewBox="0 0 251 80" fill="none" xmlns="http://www.w3.org/2000/svg">
<path d="M201.04 47.198C199.996 47.198 199.096 47.03 198.34 46.694C197.596 46.346 196.912 45.824 196.288 45.128L198.124 43.31C198.532 43.778 198.982 44.144 199.474 44.408C199.978 44.66 200.56 44.786 201.22 44.786C201.82 44.786 202.282 44.678 202.606 44.462C202.942 44.246 203.11 43.946 203.11 43.562C203.11 43.214 203.002 42.932 202.786 42.716C202.57 42.5 202.282 42.314 201.922 42.158C201.574 42.002 201.184 41.852 200.752 41.708C200.332 41.564 199.912 41.402 199.492 41.222C199.072 41.03 198.682 40.796 198.322 40.52C197.974 40.232 197.692 39.878 197.476 39.458C197.26 39.026 197.152 38.486 197.152 37.838C197.152 37.058 197.338 36.386 197.71 35.822C198.094 35.258 198.622 34.832 199.294 34.544C199.966 34.244 200.74 34.094 201.616 34.094C202.504 34.094 203.314 34.25 204.046 34.562C204.79 34.874 205.402 35.3 205.882 35.84L204.046 37.658C203.662 37.262 203.272 36.968 202.876 36.776C202.492 36.584 202.054 36.488 201.562 36.488C201.07 36.488 200.68 36.584 200.392 36.776C200.104 36.956 199.96 37.22 199.96 37.568C199.96 37.892 200.068 38.156 200.284 38.36C200.5 38.552 200.782 38.72 201.13 38.864C201.49 39.008 201.88 39.152 202.3 39.296C202.732 39.44 203.158 39.608 203.578 39.8C203.998 39.992 204.382 40.238 204.73 40.538C205.09 40.826 205.378 41.198 205.594 41.654C205.81 42.098 205.918 42.65 205.918 43.31C205.918 44.522 205.486 45.476 204.622 46.172C203.758 46.856 202.564 47.198 201.04 47.198ZM208.708 47V34.634H211.462V47H208.708ZM206.728 40.592V38.252H213.442V40.592H206.728ZM218.544 47.198C217.74 47.198 217.026 47.036 216.402 46.712C215.79 46.376 215.31 45.92 214.962 45.344C214.614 44.756 214.44 44.084 214.44 43.328V38.252H217.194V43.292C217.194 43.592 217.242 43.85 217.338 44.066C217.446 44.282 217.602 44.45 217.806 44.57C218.01 44.69 218.256 44.75 218.544 44.75C218.952 44.75 219.276 44.624 219.516 44.372C219.756 44.108 219.876 43.748 219.876 43.292V38.252H222.63V43.31C222.63 44.078 222.456 44.756 222.108 45.344C221.76 45.92 221.28 46.376 220.668 46.712C220.056 47.036 219.348 47.198 218.544 47.198ZM228.085 47.18C227.257 47.18 226.519 46.982 225.871 46.586C225.235 46.19 224.731 45.65 224.359 44.966C223.999 44.282 223.819 43.502 223.819 42.626C223.819 41.75 223.999 40.97 224.359 40.286C224.731 39.602 225.235 39.062 225.871 38.666C226.519 38.27 227.257 38.072 228.085 38.072C228.685 38.072 229.225 38.186 229.705 38.414C230.197 38.642 230.599 38.96 230.911 39.368C231.235 39.764 231.415 40.22 231.451 40.736V44.426C231.415 44.942 231.241 45.41 230.929 45.83C230.617 46.238 230.215 46.568 229.723 46.82C229.231 47.06 228.685 47.18 228.085 47.18ZM228.571 44.696C228.967 44.696 229.309 44.612 229.597 44.444C229.885 44.264 230.113 44.018 230.281 43.706C230.449 43.394 230.533 43.034 230.533 42.626C230.533 42.218 230.449 41.864 230.281 41.564C230.125 41.252 229.897 41.006 229.597 40.826C229.309 40.646 228.973 40.556 228.589 40.556C228.205 40.556 227.863 40.646 227.563 40.826C227.275 41.006 227.041 41.252 226.861 41.564C226.693 41.876 226.609 42.23 226.609 42.626C226.609 43.022 226.693 43.376 226.861 43.688C227.029 44 227.263 44.246 227.563 44.426C227.863 44.606 228.199 44.696 228.571 44.696ZM233.125 47H230.425V44.642L230.839 42.518L230.371 40.394V33.932H233.125V47ZM235.964 47V38.252H238.718V47H235.964ZM237.35 37.046C236.918 37.046 236.558 36.902 236.27 36.614C235.994 36.314 235.856 35.954 235.856 35.534C235.856 35.102 235.994 34.742 236.27 34.454C236.558 34.166 236.918 34.022 237.35 34.022C237.782 34.022 238.136 34.166 238.412 34.454C238.688 34.742 238.826 35.102 238.826 35.534C238.826 35.954 238.688 36.314 238.412 36.614C238.136 36.902 237.782 37.046 237.35 37.046ZM244.869 47.198C243.969 47.198 243.153 47 242.421 46.604C241.701 46.196 241.131 45.644 240.711 44.948C240.291 44.252 240.081 43.472 240.081 42.608C240.081 41.744 240.291 40.97 240.711 40.286C241.131 39.602 241.701 39.062 242.421 38.666C243.141 38.258 243.957 38.054 244.869 38.054C245.781 38.054 246.597 38.252 247.317 38.648C248.037 39.044 248.607 39.59 249.027 40.286C249.447 40.97 249.657 41.744 249.657 42.608C249.657 43.472 249.447 44.252 249.027 44.948C248.607 45.644 248.037 46.196 247.317 46.604C246.597 47 245.781 47.198 244.869 47.198ZM244.869 44.696C245.265 44.696 245.613 44.612 245.913 44.444C246.213 44.264 246.441 44.018 246.597 43.706C246.765 43.382 246.849 43.016 246.849 42.608C246.849 42.2 246.765 41.846 246.597 41.546C246.429 41.234 246.195 40.994 245.895 40.826C245.607 40.646 245.265 40.556 244.869 40.556C244.485 40.556 244.143 40.646 243.843 40.826C243.543 40.994 243.309 41.234 243.141 41.546C242.973 41.858 242.889 42.218 242.889 42.626C242.889 43.022 242.973 43.382 243.141 43.706C243.309 44.018 243.543 44.264 243.843 44.444C244.143 44.612 244.485 44.696 244.869 44.696Z" fill="#FE18BE"/>
<path d="M94.218 47.198C93.294 47.198 92.424 47.03 91.608 46.694C90.804 46.358 90.102 45.896 89.502 45.308C88.902 44.708 88.428 44.012 88.08 43.22C87.744 42.416 87.576 41.552 87.576 40.628C87.576 39.704 87.75 38.846 88.098 38.054C88.446 37.262 88.926 36.572 89.538 35.984C90.162 35.384 90.888 34.922 91.716 34.598C92.544 34.262 93.432 34.094 94.38 34.094C95.472 34.094 96.462 34.292 97.35 34.688C98.25 35.084 98.994 35.63 99.582 36.326L97.656 38.252C97.248 37.724 96.768 37.328 96.216 37.064C95.664 36.8 95.04 36.668 94.344 36.668C93.6 36.668 92.934 36.836 92.346 37.172C91.758 37.496 91.296 37.958 90.96 38.558C90.636 39.146 90.474 39.836 90.474 40.628C90.474 41.42 90.636 42.116 90.96 42.716C91.284 43.316 91.728 43.784 92.292 44.12C92.856 44.456 93.504 44.624 94.236 44.624C94.98 44.624 95.61 44.486 96.126 44.21C96.654 43.922 97.056 43.514 97.332 42.986C97.62 42.446 97.764 41.792 97.764 41.024L99.636 42.284L93.966 42.194V39.8H100.644V40.214C100.644 41.738 100.368 43.022 99.816 44.066C99.276 45.098 98.52 45.878 97.548 46.406C96.588 46.934 95.478 47.198 94.218 47.198ZM107.325 47.198C106.377 47.198 105.531 47.006 104.787 46.622C104.055 46.226 103.479 45.68 103.059 44.984C102.639 44.288 102.429 43.502 102.429 42.626C102.429 41.75 102.633 40.97 103.041 40.286C103.461 39.59 104.025 39.044 104.733 38.648C105.441 38.252 106.239 38.054 107.127 38.054C107.991 38.054 108.753 38.24 109.413 38.612C110.073 38.984 110.589 39.5 110.961 40.16C111.345 40.82 111.537 41.576 111.537 42.428C111.537 42.584 111.525 42.752 111.501 42.932C111.489 43.1 111.459 43.298 111.411 43.526L103.869 43.544V41.654L110.241 41.636L109.053 42.428C109.041 41.924 108.963 41.51 108.819 41.186C108.675 40.85 108.459 40.598 108.171 40.43C107.895 40.25 107.553 40.16 107.145 40.16C106.713 40.16 106.335 40.262 106.011 40.466C105.699 40.658 105.453 40.934 105.273 41.294C105.105 41.654 105.021 42.092 105.021 42.608C105.021 43.124 105.111 43.568 105.291 43.94C105.483 44.3 105.747 44.582 106.083 44.786C106.431 44.978 106.839 45.074 107.307 45.074C107.739 45.074 108.129 45.002 108.477 44.858C108.825 44.702 109.131 44.474 109.395 44.174L110.907 45.686C110.475 46.19 109.953 46.568 109.341 46.82C108.729 47.072 108.057 47.198 107.325 47.198ZM113.766 47V38.252H116.52V47H113.766ZM116.52 42.194L115.368 41.294C115.596 40.274 115.98 39.482 116.52 38.918C117.06 38.354 117.81 38.072 118.77 38.072C119.19 38.072 119.556 38.138 119.868 38.27C120.192 38.39 120.474 38.582 120.714 38.846L119.076 40.916C118.956 40.784 118.806 40.682 118.626 40.61C118.446 40.538 118.242 40.502 118.014 40.502C117.558 40.502 117.192 40.646 116.916 40.934C116.652 41.21 116.52 41.63 116.52 42.194ZM122.295 47V38.252H125.049V47H122.295ZM127.893 47V41.888C127.893 41.444 127.755 41.102 127.479 40.862C127.215 40.61 126.885 40.484 126.489 40.484C126.213 40.484 125.967 40.544 125.751 40.664C125.535 40.772 125.361 40.928 125.229 41.132C125.109 41.336 125.049 41.588 125.049 41.888L123.987 41.42C123.987 40.724 124.137 40.13 124.437 39.638C124.737 39.134 125.145 38.75 125.661 38.486C126.177 38.21 126.759 38.072 127.407 38.072C128.019 38.072 128.565 38.21 129.045 38.486C129.537 38.762 129.927 39.146 130.215 39.638C130.503 40.13 130.647 40.718 130.647 41.402V47H127.893ZM133.491 47V41.888C133.491 41.444 133.353 41.102 133.077 40.862C132.813 40.61 132.483 40.484 132.087 40.484C131.811 40.484 131.565 40.544 131.349 40.664C131.133 40.772 130.959 40.928 130.827 41.132C130.707 41.336 130.647 41.588 130.647 41.888L129.063 41.672C129.087 40.928 129.261 40.292 129.585 39.764C129.921 39.224 130.359 38.81 130.899 38.522C131.451 38.222 132.069 38.072 132.753 38.072C133.425 38.072 134.019 38.216 134.535 38.504C135.063 38.78 135.477 39.182 135.777 39.71C136.089 40.226 136.245 40.85 136.245 41.582V47H133.491ZM143.23 47.198C142.282 47.198 141.436 47.006 140.692 46.622C139.96 46.226 139.384 45.68 138.964 44.984C138.544 44.288 138.334 43.502 138.334 42.626C138.334 41.75 138.538 40.97 138.946 40.286C139.366 39.59 139.93 39.044 140.638 38.648C141.346 38.252 142.144 38.054 143.032 38.054C143.896 38.054 144.658 38.24 145.318 38.612C145.978 38.984 146.494 39.5 146.866 40.16C147.25 40.82 147.442 41.576 147.442 42.428C147.442 42.584 147.43 42.752 147.406 42.932C147.394 43.1 147.364 43.298 147.316 43.526L139.774 43.544V41.654L146.146 41.636L144.958 42.428C144.946 41.924 144.868 41.51 144.724 41.186C144.58 40.85 144.364 40.598 144.076 40.43C143.8 40.25 143.458 40.16 143.05 40.16C142.618 40.16 142.24 40.262 141.916 40.466C141.604 40.658 141.358 40.934 141.178 41.294C141.01 41.654 140.926 42.092 140.926 42.608C140.926 43.124 141.016 43.568 141.196 43.94C141.388 44.3 141.652 44.582 141.988 44.786C142.336 44.978 142.744 45.074 143.212 45.074C143.644 45.074 144.034 45.002 144.382 44.858C144.73 44.702 145.036 44.474 145.3 44.174L146.812 45.686C146.38 46.19 145.858 46.568 145.246 46.82C144.634 47.072 143.962 47.198 143.23 47.198ZM152.857 47.216C152.341 47.216 151.831 47.15 151.327 47.018C150.835 46.886 150.373 46.7 149.941 46.46C149.521 46.208 149.161 45.92 148.861 45.596L150.427 44.012C150.715 44.324 151.057 44.57 151.453 44.75C151.849 44.918 152.281 45.002 152.749 45.002C153.073 45.002 153.319 44.954 153.487 44.858C153.667 44.762 153.757 44.63 153.757 44.462C153.757 44.246 153.649 44.084 153.433 43.976C153.229 43.856 152.965 43.754 152.641 43.67C152.317 43.574 151.975 43.472 151.615 43.364C151.255 43.256 150.913 43.106 150.589 42.914C150.265 42.722 150.001 42.458 149.797 42.122C149.593 41.774 149.491 41.336 149.491 40.808C149.491 40.244 149.635 39.758 149.923 39.35C150.211 38.93 150.619 38.6 151.147 38.36C151.675 38.12 152.293 38 153.001 38C153.745 38 154.429 38.132 155.053 38.396C155.689 38.648 156.205 39.026 156.601 39.53L155.035 41.114C154.759 40.79 154.447 40.562 154.099 40.43C153.763 40.298 153.433 40.232 153.109 40.232C152.797 40.232 152.563 40.28 152.407 40.376C152.251 40.46 152.173 40.586 152.173 40.754C152.173 40.934 152.275 41.078 152.479 41.186C152.683 41.294 152.947 41.39 153.271 41.474C153.595 41.558 153.937 41.66 154.297 41.78C154.657 41.9 154.999 42.062 155.323 42.266C155.647 42.47 155.911 42.746 156.115 43.094C156.319 43.43 156.421 43.874 156.421 44.426C156.421 45.278 156.097 45.956 155.449 46.46C154.813 46.964 153.949 47.216 152.857 47.216ZM161.931 47L166.971 34.292H169.527L174.513 47H171.525L167.709 36.452H168.735L164.865 47H161.931ZM164.793 44.696V42.392H171.723V44.696H164.793ZM176.647 47V38.252H179.401V47H176.647ZM179.401 42.194L178.249 41.294C178.477 40.274 178.861 39.482 179.401 38.918C179.941 38.354 180.691 38.072 181.651 38.072C182.071 38.072 182.437 38.138 182.749 38.27C183.073 38.39 183.355 38.582 183.595 38.846L181.957 40.916C181.837 40.784 181.687 40.682 181.507 40.61C181.327 40.538 181.123 40.502 180.895 40.502C180.439 40.502 180.073 40.646 179.797 40.934C179.533 41.21 179.401 41.63 179.401 42.194ZM186.558 47V34.634H189.312V47H186.558ZM184.578 40.592V38.252H191.292V40.592H184.578Z" fill="white"/>
<path d="M79 39.5062C79 60.7609 61.5509 78.0123 40 78.0123C18.4491 78.0123 1 60.7609 1 39.5062C1 18.2515 18.4491 1 40 1C61.5509 1 79 18.2515 79 39.5062Z" fill="#202020" stroke="url(#paint0_linear_459_9)" stroke-width="2"/>
<path d="M40.0817 22.3112C39.9279 22.6439 38.7153 25.4338 38.5186 25.9167C38.4542 26.0741 38.0071 27.1292 37.5242 28.2595C36.0899 31.6253 35.3602 33.3494 35.3066 33.4996C35.2815 33.5783 35.0455 34.1506 34.7844 34.7694C34.5232 35.3882 34.1977 36.1608 34.0618 36.4863C33.9259 36.8118 33.3 38.2998 32.674 39.7949L31.5366 42.5133L27.1621 42.499C23.4958 42.4883 22.7911 42.4918 22.8055 42.5348C22.8126 42.5598 22.9521 42.6564 23.1095 42.7494C23.6639 43.0677 24.0574 43.4254 24.3542 43.8904C24.5832 44.2445 24.6762 44.4448 24.7942 44.8561C24.9516 45.3927 24.9909 45.643 24.9909 46.108C24.9909 46.455 24.9766 46.5695 24.8943 46.8413C24.5545 47.9644 23.8535 48.6798 22.7268 49.0554C22.0579 49.2807 21.178 49.3844 20.2659 49.3522C19.6006 49.3272 19.3609 49.2771 18.76 49.0411C17.8551 48.6834 17.3865 48.3185 16.9179 47.621C16.5138 47.0094 16.292 46.4264 16.131 45.5357C15.9272 44.409 15.852 43.4898 15.8485 42.1198C15.8485 40.6068 15.9522 39.6339 16.2598 38.2211C16.6068 36.6222 17.1683 35.4812 18.0304 34.6371C19.1141 33.5712 20.502 33.2278 21.8934 33.682C23.0272 34.0504 24.0574 34.8767 24.8121 36.0213C25.1912 36.6007 25.8243 38.0029 26.0318 38.7397L26.1105 39.008L26.6935 39.0187L27.2801 39.0294L27.2551 38.2497C27.1978 36.3826 26.9796 31.8364 26.9475 31.8364C26.9367 31.8364 26.5182 32.3264 26.0175 32.9273C25.5203 33.5282 25.0982 34.0183 25.0803 34.0183C25.066 34.0183 24.8693 33.8823 24.6511 33.7178C23.6603 32.9881 22.8555 32.5947 21.9577 32.4122C21.1637 32.2513 20.0048 32.2263 19.1678 32.355C18.2664 32.4909 17.6011 32.7091 16.8321 33.1133C16.081 33.5103 15.3799 34.0648 14.5501 34.9232C13.8526 35.6422 13.3804 36.2931 12.9798 37.0944C12.6615 37.731 12.3002 38.9651 12.125 40.0274C11.989 40.8572 11.964 41.8337 12.0498 43.0641C12.1107 43.9512 12.1321 44.0764 12.3181 44.8061C12.5756 45.8076 12.7938 46.3763 13.1336 46.9486C13.5235 47.6032 14.3998 48.6047 15.0043 49.0804C16.4029 50.1892 18.1663 50.7937 20.1693 50.8545C20.8382 50.8724 21.7646 50.8152 22.3154 50.7186C22.9807 50.6006 23.9858 50.1463 24.8765 49.5561C25.1555 49.3701 25.3987 49.2199 25.413 49.2199C25.4416 49.2199 26.1641 50.0819 26.4109 50.411L26.5683 50.622L26.6291 50.5004C26.6613 50.436 26.9153 49.8888 27.1943 49.2879L27.6986 48.1969V46.3656V44.5342H29.183H30.6638L30.5923 44.7023C30.5529 44.7989 30.1595 45.7182 29.7195 46.7519C29.2796 47.7856 28.6214 49.3201 28.2566 50.1678C27.6092 51.6665 27.5949 51.7058 27.6593 51.7774C27.695 51.8167 28.1028 52.2924 28.5642 52.8325C29.0256 53.3726 29.4441 53.8484 29.4906 53.8913C29.6051 53.9914 36.4476 56.5668 36.5227 56.5382C36.5728 56.5167 36.5728 56.5095 36.5263 56.4523C36.4977 56.4201 36.2652 56.134 36.0112 55.8192C35.7537 55.5044 34.9668 54.5387 34.2621 53.6731C32.1196 51.0441 32.023 50.9261 32.0373 50.8867C32.1554 50.5827 34.652 44.5807 34.6699 44.5628C34.6806 44.5485 37.1558 44.5485 40.1639 44.5628L45.6365 44.5879L45.8726 45.1602C47.7505 49.692 48.2298 50.8617 48.2298 50.9082C48.2298 50.9404 47.2175 52.2102 45.9763 53.7303C44.7387 55.2505 43.7229 56.506 43.7229 56.5238C43.7229 56.5382 43.748 56.5525 43.7801 56.5525C43.8588 56.5525 50.6549 53.9879 50.7622 53.9199C50.8659 53.8519 52.6436 51.7738 52.6579 51.7022C52.6651 51.67 52.5756 51.434 52.4576 51.1764C52.3396 50.9153 52.032 50.2143 51.778 49.6134C51.3488 48.6083 49.8107 44.9777 49.6855 44.6666L49.6283 44.5342H51.0412H52.4505V46.176V47.8178L53.0871 49.2449L53.7202 50.6757L53.874 50.5433C54.1423 50.3037 54.2389 50.2751 54.7396 50.2751H55.1867L55.9737 50.5326C57.6834 51.0834 59.8009 51.3159 61.1959 51.1013C61.879 50.9976 62.8555 50.7937 63.0487 50.7186C63.6782 50.4718 64.3185 50.0426 64.8443 49.5168C65.3057 49.0554 65.5417 48.6762 65.785 48.0038C66.0354 47.3206 66.0568 47.199 66.0532 46.3763C66.0532 45.2746 65.9281 44.6988 65.5346 43.9619C65.2019 43.336 64.8443 42.9318 64.0788 42.3237C63.6353 41.9696 63.4386 41.8516 62.4835 41.383C61.3819 40.8393 60.8632 40.6068 59.9619 40.2491C57.8157 39.3943 56.7963 38.7755 56.1632 37.9528C55.9522 37.6738 55.734 37.2339 55.6482 36.9155C55.5587 36.5686 55.5659 35.9712 55.6625 35.6171C55.8091 35.0949 55.9665 34.8231 56.3278 34.4618C56.6962 34.0969 57.0253 33.9002 57.5153 33.7607C57.7692 33.6892 57.873 33.6785 58.5311 33.6785C59.1356 33.6785 59.3395 33.6928 59.7007 33.7607C60.8525 33.9718 61.8004 34.5226 62.5622 35.4204C63.2561 36.2323 64.0323 37.6595 64.3578 38.7147C64.483 39.126 64.4329 39.0974 65.0052 39.0974H65.506V38.9436C65.506 38.8613 65.4488 37.5629 65.3808 36.0571C65.3128 34.5512 65.2449 32.9237 65.2306 32.4373L65.2091 31.5538L64.923 31.9008C64.7656 32.0903 64.3793 32.5804 64.0645 32.9881C63.6281 33.5533 63.4707 33.7321 63.4135 33.7321C63.3706 33.7321 63.0701 33.6248 62.7482 33.496C62.0686 33.2242 60.7881 32.7878 60.1335 32.609C59.411 32.4122 58.9818 32.3622 58.1305 32.3836C57.5725 32.3944 57.3257 32.4158 57.0646 32.4766C56.1132 32.6841 55.362 33.0346 54.711 33.564C54.3033 33.8966 53.8168 34.519 53.5915 34.9983C53.1837 35.8675 52.9977 37.3877 53.1837 38.3105C53.2517 38.6324 53.502 39.3442 53.6737 39.6876C54.3569 41.0647 55.6911 42.1771 58.4417 43.6686C59.1034 44.0263 59.6578 44.2803 60.5878 44.6487C61.3103 44.9348 61.7789 45.1673 62.226 45.4499C63.1631 46.0544 63.4922 46.9021 63.2168 47.993C63.1345 48.3042 63.0594 48.458 62.8412 48.7478C62.6588 48.9874 62.2153 49.3451 61.8969 49.5025C61.3926 49.7529 60.4769 49.8816 59.3717 49.853C58.2664 49.8244 57.8193 49.735 57.0753 49.3809C55.9236 48.8336 55.0687 47.8965 54.6681 46.734C54.4642 46.1545 54.3998 45.7504 54.3998 45.1065C54.3998 44.5485 54.407 44.4984 54.5036 44.2123C54.6967 43.64 54.9292 43.2644 55.3334 42.8602C55.48 42.7208 55.5945 42.5991 55.5874 42.5956C55.5838 42.592 54.0529 42.5777 52.1858 42.5669L48.7913 42.5491L47.8828 40.3314C47.382 39.1117 46.5629 37.1158 46.0586 35.8961C45.5543 34.6764 45.1072 33.5819 45.0642 33.4638C45.0213 33.3458 44.6779 32.516 44.3059 31.6218C43.9304 30.7275 43.333 29.2861 42.9718 28.4205C42.6141 27.5549 41.9703 26.0025 41.541 24.9688C41.1118 23.9351 40.6862 22.905 40.5932 22.6796C40.3929 22.1932 40.2999 22 40.2569 22C40.2426 22 40.1639 22.1395 40.0817 22.3112ZM40.3321 31.6826C43.6192 39.7126 44.7602 42.5026 44.7602 42.5312C44.7602 42.5705 38.6545 42.5741 36.6872 42.5348L35.5391 42.5133L36.5406 40.081C37.0914 38.7433 37.8533 36.8905 38.2324 35.9676C39.4557 32.9953 40.1425 31.3714 40.1783 31.3714C40.1926 31.3714 40.2605 31.5109 40.3321 31.6826Z" fill="#C71A97"/>
<path d="M31.2576 55.7942C31.3005 55.8371 32.2198 56.4845 34.6556 58.1799C35.6392 58.8667 37.2739 60.0041 38.2861 60.7123C39.2984 61.4205 40.1425 62 40.164 62C40.1854 62 41.3443 61.2059 42.7393 60.2295C44.1379 59.2566 46.1159 57.8759 47.1388 57.1641C48.1618 56.4487 49.0238 55.8407 49.0525 55.812C49.099 55.762 49.0954 55.7584 49.0167 55.7727C48.9666 55.7834 46.9672 56.5095 44.5742 57.3859C42.1813 58.2658 40.1962 58.9847 40.164 58.9847C40.1318 58.9847 38.1466 58.2658 35.7537 57.3859C33.3608 56.5095 31.3613 55.7834 31.3113 55.7727C31.2504 55.762 31.2326 55.7691 31.2576 55.7942Z" fill="#C71A97"/>
<defs>
<linearGradient id="paint0_linear_459_9" x1="-5.76271" y1="-7.90124" x2="92.6459" y2="10.1779" gradientUnits="userSpaceOnUse">
<stop stop-color="#FF2CDF"/>
<stop offset="1" stop-color="#0014FF"/>
</linearGradient>
</defs>
</svg>
